<svg width="130" height="68" viewBox="0 0 130 68" fill="none" xmlns="http://www.w3.org/2000/svg">
<g clip-path="url(#clip0_1178_1378)">
<path d="M67.5028 5.94119H66.3936V20.7563H67.5028V5.94119Z" fill="#5D5D5D"/>
<path d="M68.688 7.47592V14.9518C68.688 15.5596 69.1895 16.0611 69.7973 16.0611V9.78555L75.5562 17.9756C75.9057 18.4771 76.6046 18.5986 77.1061 18.2491L72.0917 11.1227L81.6038 19.0241C82.0748 19.4192 82.7738 19.3432 83.1689 18.8873L73.4137 10.7732L87.7273 18.0516C88.2744 18.3251 88.9429 18.1124 89.2164 17.5654L76.4071 11.0619L97.5433 18.234C98.1207 18.4315 98.7589 18.1124 98.9412 17.535L77.7139 10.3326L104.974 15.8787C105.566 16.0003 106.159 15.6204 106.28 15.0126L79.5828 9.58802L110.444 12.5206C111.052 12.5814 111.599 12.1256 111.644 11.5178L80.9504 8.61554H114.957C115.565 8.61554 116.066 8.1141 116.066 7.50631H68.6729L68.688 7.47592Z" fill="#5D5D5D"/>
<path d="M62.493 5.94119H61.3838V20.7563H62.493V5.94119Z" fill="#5D5D5D"/>
<path d="M59.0861 16.0611C59.6939 16.0611 60.1953 15.5596 60.1953 14.9518V7.47592H12.8174C12.8174 8.08371 13.3188 8.58515 13.9266 8.58515H47.933L17.2391 11.4874C17.2999 12.0952 17.8317 12.551 18.4395 12.4903L49.3005 9.55763L22.6029 14.9822C22.7245 15.5748 23.3171 15.9699 23.9097 15.8483L51.1695 10.3022L29.9421 17.5046C30.1396 18.082 30.7626 18.4011 31.3401 18.2036L52.4762 11.0315L39.6669 17.535C39.9404 18.082 40.609 18.2947 41.156 18.0212L55.4697 10.7428L45.7145 18.8569C46.1096 19.328 46.8085 19.3888 47.2796 19.0089L56.7916 11.1075L51.7773 18.234C52.2787 18.5834 52.9625 18.4619 53.3272 17.9604L59.0861 9.77036V16.0459V16.0611Z" fill="#5D5D5D"/>
<path d="M64.9998 23.0052V0H63.8906V23.0052C63.7842 23.5826 62.3559 30.3595 56.2627 35.6778L56.2931 35.7082C56.673 36.1488 57.3567 36.1792 57.7822 35.7842C61.0491 32.6692 62.8877 29.2503 63.8906 26.7583V29.5086C63.7234 30.1468 62.1128 35.5866 58.1317 37.8051C58.4356 38.3521 59.1497 38.5041 59.6512 38.1394C61.7025 36.6351 63.07 34.4318 63.8906 32.654V35.2067C63.8298 35.541 63.1916 38.4585 60.2742 39.978C60.5629 40.525 61.277 40.7073 61.7785 40.3426C62.7358 39.6589 63.4043 38.8535 63.8906 38.0786V42.4395H64.9998V38.0786C65.486 38.8383 66.1546 39.6437 67.1119 40.3426C67.6133 40.7073 68.3275 40.525 68.6162 39.978C65.6988 38.4433 65.0606 35.541 64.9998 35.2067V32.654C65.8355 34.4318 67.1879 36.6351 69.2392 38.1394C69.7406 38.5041 70.4548 38.3521 70.7587 37.8051C66.7624 35.5714 65.1669 30.1316 64.9998 29.4934V26.7431C66.0027 29.2351 67.8413 32.654 71.1082 35.769C71.5336 36.1792 72.2174 36.1488 72.5973 35.693L72.6277 35.6626C66.5345 30.3444 65.1062 23.5674 64.9998 22.99V23.0052Z" fill="#5D5D5D"/>
</g>
<g clip-path="url(#clip1_1178_1378)">
<path d="M113.466 49.2812H117.124C116.876 49.3308 116.64 49.5291 116.405 49.8639C116.169 50.1986 116.057 50.7938 116.057 51.6368V67.8415L102.779 52.3683V64.7915C102.779 65.6222 102.928 66.2049 103.225 66.5397C103.523 66.8744 103.808 67.0728 104.081 67.1224H100.423C100.671 67.0728 100.907 66.8744 101.167 66.5397C101.427 66.2049 101.539 65.6098 101.539 64.7667V51.798C101.539 51.2153 101.341 50.6698 100.944 50.1862C100.547 49.7027 100.051 49.4051 99.4437 49.2812H102.655L114.818 63.4649V51.6368C114.818 50.3102 114.371 49.5167 113.466 49.2812ZM93.9264 67.1224H84.1565C84.1565 67.1224 84.2557 67.1348 84.4665 67.0108C84.6772 66.8868 84.8632 66.6264 85.0244 66.2297C85.1856 65.8454 85.2724 65.275 85.2724 64.5311V51.798C85.2724 51.0913 85.1856 50.5458 85.0244 50.1738C84.8632 49.8019 84.6772 49.5415 84.4665 49.4051C84.2557 49.2688 84.1565 49.2192 84.1565 49.2812H93.5421V51.8724C93.2321 50.831 92.3022 50.3226 90.74 50.3226H87.1321V57.6872H91.5955C91.9427 57.6872 92.2402 57.6252 92.4758 57.5137C92.7238 57.4021 92.8974 57.2905 93.0213 57.1665C93.1453 57.0425 93.2073 56.9681 93.2321 56.9309V59.4478C93.2321 59.4478 93.1453 59.3362 93.0213 59.2122C92.8974 59.0883 92.7238 58.9767 92.4882 58.8775C92.2526 58.7783 91.9675 58.7163 91.6203 58.7163H87.1321V66.0809H91.174C91.9551 66.0809 92.6246 65.9197 93.1825 65.5974C93.7404 65.275 94.1496 64.8659 94.3852 64.3699L93.914 67.1224H93.9264ZM76.9159 50.6574C76.9159 50.3102 76.8167 50.0127 76.6307 49.7647C76.4447 49.5167 76.1472 49.3556 75.7504 49.2812H80.1023C79.8791 49.3184 79.5691 49.5167 79.1972 49.8763C78.8128 50.2358 78.4161 50.9177 78.0069 51.8972L71.4482 67.7423L64.7903 51.8228C64.4059 50.9053 64.034 50.273 63.662 49.9135C63.2901 49.5539 62.9801 49.3432 62.7446 49.2812H67.0716C66.6005 49.4051 66.3773 49.7027 66.3773 50.1862C66.3773 50.4466 66.4393 50.7194 66.5633 51.0169C66.6872 51.3145 66.7492 51.4881 66.774 51.5377L71.8078 63.8492L76.6803 51.8724C76.8539 51.4757 76.9407 51.0665 76.9407 50.6574H76.9159ZM57.2397 49.2812H61.046C60.8724 49.3184 60.5997 49.5043 60.2153 49.8515C59.831 50.1986 59.3722 50.831 58.8391 51.7732L54.3509 59.4726V64.7047C54.3509 65.585 54.4749 66.2049 54.7104 66.5397C54.946 66.8744 55.1816 67.0728 55.3799 67.11H51.4373C51.648 67.0728 51.8712 66.8868 52.1068 66.5521C52.3548 66.2173 52.4663 65.5974 52.4663 64.6923V59.4354L48.0277 51.736C47.507 50.8434 47.0607 50.2234 46.6763 49.8763C46.292 49.5415 45.9944 49.3308 45.7712 49.2688H50.1231C49.6891 49.3556 49.4783 49.6283 49.4783 50.0995C49.4783 50.2606 49.5279 50.4466 49.6395 50.6574C49.7511 50.8681 49.9123 51.1781 50.1355 51.5749L53.8922 58.1832L57.6488 51.674C57.9464 51.1905 58.0952 50.6946 58.0952 50.1986C58.0952 49.8763 57.996 49.6407 57.7976 49.5167C57.5993 49.3927 57.4009 49.306 57.2149 49.2688L57.2397 49.2812ZM42.6716 67.1224H39.4853L31.3396 58.0468V64.7295C31.3396 65.5974 31.4635 66.1925 31.6991 66.5397C31.9347 66.8868 32.1702 67.0728 32.3686 67.11H28.3764C28.5871 67.0728 28.8227 66.8868 29.0707 66.5521C29.3186 66.2173 29.455 65.6098 29.455 64.7295V51.6864C29.455 50.8062 29.331 50.1986 29.0955 49.8763C28.8475 49.5539 28.6119 49.3432 28.364 49.2812H32.3562C32.1454 49.3184 31.9223 49.5043 31.6867 49.8391C31.4387 50.1738 31.3272 50.7938 31.3272 51.6988V57.9724L37.4767 51.86C38.4562 50.8805 38.9521 50.1986 38.9521 49.8391C38.9521 49.5291 38.8282 49.3432 38.5926 49.2936H42.6592C42.3865 49.3308 41.9401 49.5167 41.345 49.8515C40.7499 50.1862 39.9812 50.8186 39.0513 51.7608L33.2489 57.5137L39.8076 64.6427C40.6011 65.5602 41.2334 66.1801 41.6922 66.5273C42.1509 66.8744 42.4733 67.0728 42.6592 67.1348L42.6716 67.1224ZM16.7963 67.4323C15.9036 67.4323 15.0357 67.3084 14.205 67.0604C13.3743 66.8124 12.6304 66.4653 11.9733 66.0065V62.8698C12.4197 64.0228 13.114 64.9031 14.0315 65.4982C14.9613 66.0933 15.916 66.3909 16.9203 66.3909C17.9245 66.3909 18.7552 66.0561 19.4371 65.3866C20.1067 64.7171 20.4538 63.8988 20.4538 62.9069C20.4538 62.2498 20.3174 61.6919 20.0571 61.2208C19.7843 60.7496 19.3628 60.3157 18.7676 59.9065C18.1725 59.4974 17.3542 59.0511 16.2756 58.5427C14.7754 57.8484 13.6843 57.1293 12.99 56.373C12.3081 55.6167 11.9609 54.7116 11.9609 53.633C11.9609 52.7155 12.1841 51.8972 12.618 51.1781C13.0644 50.459 13.6595 49.9135 14.4034 49.5167C15.1597 49.1324 15.978 48.934 16.8831 48.934C17.6642 48.934 18.4205 49.0456 19.1644 49.2564C19.9083 49.4671 20.6026 49.7771 21.2349 50.1738V52.9759C20.8258 52.0212 20.1934 51.2897 19.3504 50.7566C18.5073 50.2234 17.6642 49.9631 16.7963 49.9631C15.8168 49.9631 15.0109 50.2854 14.4158 50.9177C13.8083 51.5625 13.5107 52.3188 13.5107 53.199C13.5107 53.8438 13.6967 54.3893 14.0563 54.848C14.4158 55.3068 14.8622 55.6911 15.3953 56.0011C15.9284 56.311 16.6599 56.6954 17.6146 57.1417C18.5817 57.6128 19.3751 58.0344 19.9951 58.4435C20.615 58.8403 21.1357 59.361 21.5449 59.9933C21.954 60.638 22.1648 61.4067 22.1648 62.3242C22.1648 63.3657 21.9168 64.2584 21.4209 65.0147C20.9249 65.771 20.2678 66.3537 19.4495 66.7628C18.6312 67.172 17.7386 67.3703 16.7715 67.3703L16.7963 67.4323Z" fill="#5D5D5D"/>
</g>
<defs>
<clipPath id="clip0_1178_1378">
<rect width="129.387" height="42.6977" fill="white"/>
</clipPath>
<clipPath id="clip1_1178_1378">
<rect width="105.426" height="18.9767" fill="white" transform="translate(11.9805 49.0233)"/>
</clipPath>
</defs>
</svg>
