<svg width="130" height="68" viewBox="0 0 130 68" fill="none" xmlns="http://www.w3.org/2000/svg">
<g clip-path="url(#clip0_923_1024)">
<path d="M67.5028 5.94116H66.3936V20.7563H67.5028V5.94116Z" fill="#FFFAEA"/>
<path d="M68.688 7.47583V14.9518C68.688 15.5596 69.1895 16.061 69.7973 16.061V9.78547L75.5562 17.9756C75.9057 18.477 76.6046 18.5985 77.1061 18.2491L72.0917 11.1226L81.6038 19.024C82.0748 19.4191 82.7738 19.3431 83.1689 18.8873L73.4137 10.7731L87.7273 18.0515C88.2744 18.325 88.9429 18.1123 89.2164 17.5653L76.4071 11.0618L97.5433 18.2339C98.1207 18.4314 98.7589 18.1123 98.9412 17.5349L77.7139 10.3325L104.974 15.8786C105.566 16.0002 106.159 15.6203 106.28 15.0125L79.5828 9.58793L110.444 12.5206C111.052 12.5813 111.599 12.1255 111.644 11.5177L80.9504 8.61545H114.957C115.565 8.61545 116.066 8.11402 116.066 7.50622H68.6729L68.688 7.47583Z" fill="#FFFAEA"/>
<path d="M62.493 5.94116H61.3838V20.7563H62.493V5.94116Z" fill="#FFFAEA"/>
<path d="M59.0861 16.061C59.6939 16.061 60.1953 15.5596 60.1953 14.9518V7.47583H12.8174C12.8174 8.08363 13.3188 8.58506 13.9266 8.58506H47.933L17.2391 11.4873C17.2999 12.0951 17.8317 12.551 18.4395 12.4902L49.3005 9.55754L22.6029 14.9821C22.7245 15.5747 23.3171 15.9698 23.9097 15.8483L51.1695 10.3021L29.9421 17.5045C30.1396 18.0819 30.7626 18.401 31.3401 18.2035L52.4762 11.0315L39.6669 17.5349C39.9404 18.0819 40.609 18.2946 41.156 18.0211L55.4697 10.7427L45.7145 18.8569C46.1096 19.3279 46.8085 19.3887 47.2796 19.0088L56.7916 11.1074L51.7773 18.2339C52.2787 18.5834 52.9625 18.4618 53.3272 17.9604L59.0861 9.77027V16.0458V16.061Z" fill="#FFFAEA"/>
<path d="M64.9998 23.0052V0H63.8906V23.0052C63.7842 23.5826 62.3559 30.3595 56.2627 35.6778L56.2931 35.7082C56.673 36.1488 57.3567 36.1792 57.7822 35.7842C61.0491 32.6692 62.8877 29.2503 63.8906 26.7583V29.5086C63.7234 30.1468 62.1128 35.5866 58.1317 37.8051C58.4356 38.3521 59.1497 38.5041 59.6512 38.1394C61.7025 36.6351 63.07 34.4318 63.8906 32.654V35.2067C63.8298 35.541 63.1916 38.4585 60.2742 39.978C60.5629 40.525 61.277 40.7073 61.7785 40.3426C62.7358 39.6589 63.4043 38.8535 63.8906 38.0786V42.4395H64.9998V38.0786C65.486 38.8383 66.1546 39.6437 67.1119 40.3426C67.6133 40.7073 68.3275 40.525 68.6162 39.978C65.6988 38.4433 65.0606 35.541 64.9998 35.2067V32.654C65.8355 34.4318 67.1879 36.6351 69.2392 38.1394C69.7406 38.5041 70.4548 38.3521 70.7587 37.8051C66.7624 35.5714 65.1669 30.1316 64.9998 29.4934V26.7431C66.0027 29.2351 67.8413 32.654 71.1082 35.769C71.5336 36.1792 72.2174 36.1488 72.5973 35.693L72.6277 35.6626C66.5345 30.3444 65.1062 23.5674 64.9998 22.99V23.0052Z" fill="#FFFAEA"/>
</g>
<g clip-path="url(#clip1_923_1024)">
<path d="M113.466 49.281H117.124C116.876 49.3306 116.64 49.529 116.405 49.8637C116.169 50.1985 116.057 50.7936 116.057 51.6367V67.8413L102.779 52.3682V64.7913C102.779 65.622 102.928 66.2047 103.225 66.5395C103.523 66.8742 103.808 67.0726 104.081 67.1222H100.423C100.671 67.0726 100.907 66.8742 101.167 66.5395C101.427 66.2047 101.539 65.6096 101.539 64.7665V51.7979C101.539 51.2151 101.341 50.6696 100.944 50.1861C100.547 49.7025 100.051 49.405 99.4437 49.281H102.655L114.818 63.4647V51.6367C114.818 50.3101 114.371 49.5166 113.466 49.281ZM93.9264 67.1222H84.1565C84.1565 67.1222 84.2557 67.1346 84.4665 67.0106C84.6772 66.8866 84.8632 66.6263 85.0244 66.2295C85.1856 65.8452 85.2724 65.2749 85.2724 64.531V51.7979C85.2724 51.0912 85.1856 50.5456 85.0244 50.1737C84.8632 49.8017 84.6772 49.5414 84.4665 49.405C84.2557 49.2686 84.1565 49.219 84.1565 49.281H93.5421V51.8722C93.2321 50.8308 92.3022 50.3225 90.74 50.3225H87.1321V57.6871H91.5955C91.9427 57.6871 92.2402 57.6251 92.4758 57.5135C92.7238 57.4019 92.8974 57.2903 93.0213 57.1663C93.1453 57.0424 93.2073 56.968 93.2321 56.9308V59.4476C93.2321 59.4476 93.1453 59.3361 93.0213 59.2121C92.8974 59.0881 92.7238 58.9765 92.4882 58.8773C92.2526 58.7781 91.9675 58.7161 91.6203 58.7161H87.1321V66.0808H91.174C91.9551 66.0808 92.6246 65.9196 93.1825 65.5972C93.7404 65.2749 94.1496 64.8657 94.3852 64.3698L93.914 67.1222H93.9264ZM76.9159 50.6572C76.9159 50.3101 76.8167 50.0125 76.6307 49.7645C76.4447 49.5166 76.1472 49.3554 75.7504 49.281H80.1023C79.8791 49.3182 79.5691 49.5166 79.1972 49.8761C78.8128 50.2357 78.4161 50.9176 78.0069 51.897L71.4482 67.7421L64.7903 51.8227C64.4059 50.9052 64.034 50.2729 63.662 49.9133C63.2901 49.5538 62.9801 49.343 62.7446 49.281H67.0716C66.6005 49.405 66.3773 49.7025 66.3773 50.1861C66.3773 50.4464 66.4393 50.7192 66.5633 51.0168C66.6872 51.3143 66.7492 51.4879 66.774 51.5375L71.8078 63.849L76.6803 51.8722C76.8539 51.4755 76.9407 51.0664 76.9407 50.6572H76.9159ZM57.2397 49.281H61.046C60.8724 49.3182 60.5997 49.5042 60.2153 49.8513C59.831 50.1985 59.3722 50.8308 58.8391 51.7731L54.3509 59.4724V64.7045C54.3509 65.5848 54.4749 66.2047 54.7104 66.5395C54.946 66.8742 55.1816 67.0726 55.3799 67.1098H51.4373C51.648 67.0726 51.8712 66.8866 52.1068 66.5519C52.3548 66.2171 52.4663 65.5972 52.4663 64.6921V59.4352L48.0277 51.7359C47.507 50.8432 47.0607 50.2233 46.6763 49.8761C46.292 49.5414 45.9944 49.3306 45.7712 49.2686H50.1231C49.6891 49.3554 49.4783 49.6281 49.4783 50.0993C49.4783 50.2605 49.5279 50.4464 49.6395 50.6572C49.7511 50.868 49.9123 51.1779 50.1355 51.5747L53.8922 58.183L57.6488 51.6739C57.9464 51.1903 58.0952 50.6944 58.0952 50.1985C58.0952 49.8761 57.996 49.6405 57.7976 49.5166C57.5993 49.3926 57.4009 49.3058 57.2149 49.2686L57.2397 49.281ZM42.6716 67.1222H39.4853L31.3396 58.0466V64.7293C31.3396 65.5972 31.4635 66.1923 31.6991 66.5395C31.9347 66.8866 32.1702 67.0726 32.3686 67.1098H28.3764C28.5871 67.0726 28.8227 66.8866 29.0707 66.5519C29.3186 66.2171 29.455 65.6096 29.455 64.7293V51.6863C29.455 50.806 29.331 50.1985 29.0955 49.8761C28.8475 49.5538 28.6119 49.343 28.364 49.281H32.3562C32.1454 49.3182 31.9223 49.5042 31.6867 49.8389C31.4387 50.1737 31.3272 50.7936 31.3272 51.6987V57.9722L37.4767 51.8598C38.4562 50.8804 38.9521 50.1985 38.9521 49.8389C38.9521 49.529 38.8282 49.343 38.5926 49.2934H42.6592C42.3865 49.3306 41.9401 49.5166 41.345 49.8513C40.7499 50.1861 39.9812 50.8184 39.0513 51.7607L33.2489 57.5135L39.8076 64.6425C40.6011 65.56 41.2334 66.1799 41.6922 66.5271C42.1509 66.8743 42.4733 67.0726 42.6592 67.1346L42.6716 67.1222ZM16.7963 67.4322C15.9036 67.4322 15.0357 67.3082 14.205 67.0602C13.3743 66.8123 12.6304 66.4651 11.9733 66.0064V62.8696C12.4197 64.0226 13.114 64.9029 14.0315 65.498C14.9613 66.0932 15.916 66.3907 16.9203 66.3907C17.9245 66.3907 18.7552 66.056 19.4371 65.3864C20.1067 64.7169 20.4538 63.8986 20.4538 62.9068C20.4538 62.2497 20.3174 61.6917 20.0571 61.2206C19.7843 60.7495 19.3628 60.3155 18.7676 59.9064C18.1725 59.4972 17.3542 59.0509 16.2756 58.5426C14.7754 57.8483 13.6843 57.1291 12.99 56.3728C12.3081 55.6165 11.9609 54.7115 11.9609 53.6328C11.9609 52.7153 12.1841 51.897 12.618 51.1779C13.0644 50.4588 13.6595 49.9133 14.4034 49.5166C15.1597 49.1322 15.978 48.9338 16.8831 48.9338C17.6642 48.9338 18.4205 49.0454 19.1644 49.2562C19.9083 49.467 20.6026 49.7769 21.2349 50.1737V52.9757C20.8258 52.021 20.1934 51.2895 19.3504 50.7564C18.5073 50.2233 17.6642 49.9629 16.7963 49.9629C15.8168 49.9629 15.0109 50.2853 14.4158 50.9176C13.8083 51.5623 13.5107 52.3186 13.5107 53.1989C13.5107 53.8436 13.6967 54.3891 14.0563 54.8479C14.4158 55.3066 14.8622 55.6909 15.3953 56.0009C15.9284 56.3109 16.6599 56.6952 17.6146 57.1415C18.5817 57.6127 19.3751 58.0342 19.9951 58.4434C20.615 58.8401 21.1357 59.3609 21.5449 59.9932C21.954 60.6379 22.1648 61.4066 22.1648 62.3241C22.1648 63.3655 21.9168 64.2582 21.4209 65.0145C20.9249 65.7708 20.2678 66.3535 19.4495 66.7627C18.6312 67.1718 17.7386 67.3702 16.7715 67.3702L16.7963 67.4322Z" fill="#FFFAEA"/>
</g>
<defs>
<clipPath id="clip0_923_1024">
<rect width="129.387" height="42.6977" fill="white"/>
</clipPath>
<clipPath id="clip1_923_1024">
<rect width="105.426" height="18.9767" fill="white" transform="translate(11.9805 49.0232)"/>
</clipPath>
</defs>
</svg>
